<?xml version="1.0" encoding="UTF-8" standalone="no"?>
<!-- Created with Inkscape (http://www.inkscape.org/) -->

<svg
   width="60.959999mm"
   height="128.5mm"
   viewBox="0 0 60.960004 128.50002"
   version="1.1"
   id="svg8"
   inkscape:version="1.3 (0e150ed, 2023-07-21)"
   sodipodi:docname="BD-cnCt.svg"
   xmlns:inkscape="http://www.inkscape.org/namespaces/inkscape"
   xmlns:sodipodi="http://sodipodi.sourceforge.net/DTD/sodipodi-0.dtd"
   xmlns="http://www.w3.org/2000/svg"
   xmlns:svg="http://www.w3.org/2000/svg"
   xmlns:rdf="http://www.w3.org/1999/02/22-rdf-syntax-ns#"
   xmlns:cc="http://creativecommons.org/ns#"
   xmlns:dc="http://purl.org/dc/elements/1.1/">
  <defs
     id="defs2" />
  <sodipodi:namedview
     id="base"
     pagecolor="#ffffff"
     bordercolor="#666666"
     borderopacity="1.0"
     inkscape:pageopacity="0.0"
     inkscape:pageshadow="2"
     inkscape:zoom="0.98994949"
     inkscape:cx="338.4011"
     inkscape:cy="190.91883"
     inkscape:document-units="mm"
     inkscape:current-layer="layer2"
     showgrid="false"
     units="mm"
     inkscape:snap-bbox="true"
     inkscape:snap-page="true"
     inkscape:bbox-nodes="false"
     inkscape:snap-bbox-edge-midpoints="false"
     inkscape:window-width="1920"
     inkscape:window-height="1016"
     inkscape:window-x="0"
     inkscape:window-y="27"
     inkscape:window-maximized="1"
     inkscape:snap-bbox-midpoints="true"
     inkscape:snap-nodes="false"
     inkscape:showpageshadow="2"
     inkscape:pagecheckerboard="0"
     inkscape:deskcolor="#d1d1d1" />
  <metadata
     id="metadata5">
    <rdf:RDF>
      <cc:Work
         rdf:about="">
        <dc:format>image/svg+xml</dc:format>
        <dc:type
           rdf:resource="http://purl.org/dc/dcmitype/StillImage" />
      </cc:Work>
    </rdf:RDF>
  </metadata>
  <g
     inkscape:label="Layer 1"
     inkscape:groupmode="layer"
     id="layer1"
     transform="translate(0,-168.49998)">
    <rect
       style="display:inline;opacity:1;vector-effect:none;fill:#e6e6e6;fill-opacity:1;fill-rule:evenodd;stroke:none;stroke-width:0.918331;stroke-linecap:butt;stroke-linejoin:miter;stroke-miterlimit:4;stroke-dasharray:none;stroke-dashoffset:0;stroke-opacity:1;paint-order:normal"
       id="rect420"
       width="60.959999"
       height="128.5"
       x="5.9211732e-17"
       y="168.49997" />
    <g
       aria-label="My Module"
       style="font-style:normal;font-variant:normal;font-weight:normal;font-stretch:normal;font-size:4.93889px;line-height:6.61458px;font-family:'Gotham Rounded';-inkscape-font-specification:'Gotham Rounded';font-variant-ligatures:normal;font-variant-caps:normal;font-variant-numeric:normal;font-feature-settings:normal;text-align:center;letter-spacing:0px;word-spacing:0px;writing-mode:lr-tb;text-anchor:middle;display:inline;fill:#000000;fill-opacity:1;stroke:none;stroke-width:0.264583px;stroke-linecap:butt;stroke-linejoin:miter;stroke-opacity:1"
       id="text1229">
      <path
         d="m 3.8783293,178.67396 c 0,0.1778 0.1397,0.3175 0.3174999,0.3175 0.1778,0 0.3217334,-0.1397 0.3217334,-0.3175 v -1.4732 l 0.5630333,0.86784 c 0.067733,0.1016 0.1524,0.1651 0.2709333,0.1651 0.1185333,0 0.2032,-0.0635 0.2709333,-0.1651 l 0.5715,-0.88054 v 1.47744 c 0,0.1778 0.1439333,0.32596 0.3217333,0.32596 0.1820333,0 0.3259666,-0.14393 0.3259666,-0.32596 v -2.35374 c 0,-0.18203 -0.1439333,-0.32596 -0.3259666,-0.32596 h -0.071967 c -0.1312333,0 -0.2243666,0.055 -0.2921,0.1651 l -0.7916333,1.28693 -0.7873999,-1.2827 c -0.059267,-0.0974 -0.1566333,-0.16933 -0.2963333,-0.16933 h -0.071967 c -0.1820333,0 -0.3259666,0.14393 -0.3259666,0.32596 z"
         style="font-style:normal;font-variant:normal;font-weight:normal;font-stretch:normal;font-size:4.23333px;font-family:'Gotham Rounded';-inkscape-font-specification:'Gotham Rounded';text-align:center;text-anchor:middle;stroke-width:0.264583px"
         id="path5029" />
      <path
         d="m 7.9515894,179.6561 c 0.3852333,0 0.5757333,-0.17357 0.7662333,-0.635 l 0.7916333,-1.90077 c 0.0127,-0.0296 0.029633,-0.1016 0.029633,-0.1524 0,-0.16933 -0.1397,-0.29633 -0.3048,-0.29633 -0.1651,0 -0.2582333,0.11006 -0.3090333,0.24553 l -0.474133,1.31657 -0.4910667,-1.3208 c -0.055033,-0.1524 -0.1481666,-0.2413 -0.3090333,-0.2413 -0.1778,0 -0.3175,0.127 -0.3175,0.30903 0,0.0423 0.016933,0.10583 0.033867,0.14817 l 0.7747,1.79493 -0.021167,0.0508 c -0.059267,0.1143 -0.1143,0.13547 -0.2286,0.13547 -0.046567,0 -0.080433,-0.008 -0.1354667,-0.0254 -0.0254,-0.008 -0.055033,-0.0169 -0.1058333,-0.0169 -0.1312333,0 -0.254,0.10584 -0.254,0.26247 0,0.15663 0.1100667,0.23283 0.2032,0.2667 0.1058333,0.0381 0.2074333,0.0593 0.3513667,0.0593 z"
         style="font-style:normal;font-variant:normal;font-weight:normal;font-stretch:normal;font-size:4.23333px;font-family:'Gotham Rounded';-inkscape-font-specification:'Gotham Rounded';text-align:center;text-anchor:middle;stroke-width:0.264583px"
         id="path5031" />
      <path
         d="m 11.303198,178.67396 c 0,0.1778 0.1397,0.3175 0.3175,0.3175 0.1778,0 0.321734,-0.1397 0.321734,-0.3175 v -1.4732 l 0.563033,0.86784 c 0.06773,0.1016 0.1524,0.1651 0.270933,0.1651 0.118534,0 0.2032,-0.0635 0.270934,-0.1651 l 0.5715,-0.88054 v 1.47744 c 0,0.1778 0.143933,0.32596 0.321733,0.32596 0.182033,0 0.325966,-0.14393 0.325966,-0.32596 v -2.35374 c 0,-0.18203 -0.143933,-0.32596 -0.325966,-0.32596 h -0.07197 c -0.131233,0 -0.224366,0.055 -0.2921,0.1651 l -0.791633,1.28693 -0.7874,-1.2827 c -0.05927,-0.0974 -0.156633,-0.16933 -0.296333,-0.16933 h -0.07197 c -0.182033,0 -0.325967,0.14393 -0.325967,0.32596 z"
         style="font-style:normal;font-variant:normal;font-weight:normal;font-stretch:normal;font-size:4.23333px;font-family:'Gotham Rounded';-inkscape-font-specification:'Gotham Rounded';text-align:center;text-anchor:middle;stroke-width:0.264583px"
         id="path5033" />
      <path
         d="m 16.019925,179.01686 c 0.706967,0 1.2319,-0.52916 1.2319,-1.1811 v -0.008 c 0,-0.65194 -0.5207,-1.17264 -1.223433,-1.17264 -0.706967,0 -1.2319,0.52917 -1.2319,1.1811 v 0.008 c 0,0.65193 0.5207,1.17263 1.223433,1.17263 z m 0.0085,-0.55456 c -0.3556,0 -0.5969,-0.2921 -0.5969,-0.62654 v -0.008 c 0,-0.33444 0.220133,-0.61807 0.588433,-0.61807 0.3556,0 0.5969,0.2921 0.5969,0.62653 v 0.008 c 0,0.33443 -0.220133,0.61807 -0.588433,0.61807 z"
         style="font-style:normal;font-variant:normal;font-weight:normal;font-stretch:normal;font-size:4.23333px;font-family:'Gotham Rounded';-inkscape-font-specification:'Gotham Rounded';text-align:center;text-anchor:middle;stroke-width:0.264583px"
         id="path5035" />
      <path
         d="m 19.999523,176.17206 c 0,-0.1778 -0.143933,-0.32173 -0.321733,-0.32173 -0.1778,0 -0.321733,0.14393 -0.321733,0.32173 v 0.82127 c -0.1524,-0.18203 -0.364067,-0.33867 -0.706967,-0.33867 -0.537633,0 -1.032933,0.41487 -1.032933,1.17264 v 0.008 c 0,0.75777 0.503766,1.17264 1.032933,1.17264 0.334433,0 0.550333,-0.15664 0.706967,-0.3683 v 0.0296 c 0,0.1778 0.143933,0.32173 0.321733,0.32173 0.1778,0 0.321733,-0.14393 0.321733,-0.32173 z m -1.185333,1.0287 c 0.300567,0 0.550333,0.24977 0.550333,0.62654 v 0.008 c 0,0.37677 -0.249766,0.62654 -0.550333,0.62654 -0.300567,0 -0.554567,-0.24977 -0.554567,-0.62654 v -0.008 c 0,-0.381 0.254,-0.62654 0.554567,-0.62654 z"
         style="font-style:normal;font-variant:normal;font-weight:normal;font-stretch:normal;font-size:4.23333px;font-family:'Gotham Rounded';-inkscape-font-specification:'Gotham Rounded';text-align:center;text-anchor:middle;stroke-width:0.264583px"
         id="path5037" />
      <path
         d="m 22.640196,176.99333 c 0,-0.1778 -0.143933,-0.32173 -0.321733,-0.32173 -0.1778,0 -0.321733,0.14393 -0.321733,0.32173 v 0.96943 c 0,0.3048 -0.156634,0.46144 -0.402167,0.46144 -0.245533,0 -0.389467,-0.15664 -0.389467,-0.46144 v -0.96943 c 0,-0.1778 -0.143933,-0.32173 -0.321733,-0.32173 -0.1778,0 -0.321733,0.14393 -0.321733,0.32173 v 1.17263 c 0,0.5207 0.283633,0.84244 0.770466,0.84244 0.325967,0 0.516467,-0.17357 0.664634,-0.36407 v 0.0254 c 0,0.1778 0.143933,0.32173 0.321733,0.32173 0.1778,0 0.321733,-0.14393 0.321733,-0.32173 z"
         style="font-style:normal;font-variant:normal;font-weight:normal;font-stretch:normal;font-size:4.23333px;font-family:'Gotham Rounded';-inkscape-font-specification:'Gotham Rounded';text-align:center;text-anchor:middle;stroke-width:0.264583px"
         id="path5039" />
      <path
         d="m 23.245762,178.66973 c 0,0.1778 0.143933,0.32173 0.321733,0.32173 0.1778,0 0.321734,-0.14393 0.321734,-0.32173 v -2.49767 c 0,-0.1778 -0.143934,-0.32173 -0.321734,-0.32173 -0.1778,0 -0.321733,0.14393 -0.321733,0.32173 z"
         style="font-style:normal;font-variant:normal;font-weight:normal;font-stretch:normal;font-size:4.23333px;font-family:'Gotham Rounded';-inkscape-font-specification:'Gotham Rounded';text-align:center;text-anchor:middle;stroke-width:0.264583px"
         id="path5041" />
      <path
         d="m 25.018403,177.65373 c 0.0508,-0.2921 0.224367,-0.4826 0.491067,-0.4826 0.270933,0 0.440266,0.19473 0.478366,0.4826 z m 1.341967,1.08797 c 0.04657,-0.0423 0.08467,-0.10584 0.08467,-0.1905 0,-0.14394 -0.105833,-0.254 -0.249766,-0.254 -0.06773,0 -0.110067,0.0169 -0.156634,0.0508 -0.131233,0.0974 -0.2794,0.1524 -0.4572,0.1524 -0.287866,0 -0.491066,-0.1524 -0.554566,-0.4445 h 1.274233 c 0.169333,0 0.300567,-0.12277 0.300567,-0.30904 0,-0.4699 -0.334434,-1.0922 -1.0922,-1.0922 -0.6604,0 -1.121834,0.5334 -1.121834,1.1811 v 0.008 c 0,0.69427 0.503767,1.17263 1.185334,1.17263 0.3302,0 0.588433,-0.10583 0.7874,-0.27516 z"
         style="font-style:normal;font-variant:normal;font-weight:normal;font-stretch:normal;font-size:4.23333px;font-family:'Gotham Rounded';-inkscape-font-specification:'Gotham Rounded';text-align:center;text-anchor:middle;stroke-width:0.264583px"
         id="path5043" />
    </g>
  </g>
  <g
     inkscape:groupmode="layer"
     id="layer2"
     inkscape:label="components">
    <circle
       style="display:inline;vector-effect:none;fill:#ff0000;fill-opacity:1;fill-rule:evenodd;stroke:none;stroke-width:1;stroke-linecap:butt;stroke-linejoin:miter;stroke-miterlimit:4;stroke-dasharray:none;stroke-dashoffset:0;stroke-opacity:1;paint-order:normal"
       id="path4954-3-6-7"
       cx="42.682915"
       cy="46.063263"
       r="4"
       inkscape:label="KNOB_THREE" />
    <circle
       style="display:inline;vector-effect:none;fill:#ff0000;fill-opacity:1;fill-rule:evenodd;stroke:none;stroke-width:1;stroke-linecap:butt;stroke-linejoin:miter;stroke-miterlimit:4;stroke-dasharray:none;stroke-dashoffset:0;stroke-opacity:1;paint-order:normal"
       id="path4954-3-6"
       cx="33.535278"
       cy="46.063263"
       r="4"
       inkscape:label="KNOB_TWO" />
    <circle
       style="display:inline;vector-effect:none;fill:#ff0000;fill-opacity:1;fill-rule:evenodd;stroke:none;stroke-width:1;stroke-linecap:butt;stroke-linejoin:miter;stroke-miterlimit:4;stroke-dasharray:none;stroke-dashoffset:0;stroke-opacity:1;paint-order:normal"
       id="path4954-3"
       cx="24.38764"
       cy="46.063263"
       r="4"
       inkscape:label="KNOB_ONE" />
    <circle
       style="display:inline;opacity:1;vector-effect:none;fill:#ff0000;fill-opacity:1;fill-rule:evenodd;stroke:none;stroke-width:1;stroke-linecap:butt;stroke-linejoin:miter;stroke-miterlimit:4;stroke-dasharray:none;stroke-dashoffset:0;stroke-opacity:1;paint-order:normal"
       id="path4954"
       cx="15.24"
       cy="46.063263"
       r="4"
       inkscape:label="KNOB_ZERO" />
    <circle
       style="display:inline;vector-effect:none;fill:#0000ff;fill-opacity:1;fill-rule:evenodd;stroke:none;stroke-width:1;stroke-linecap:butt;stroke-linejoin:miter;stroke-miterlimit:4;stroke-dasharray:none;stroke-dashoffset:0;stroke-opacity:1;paint-order:normal"
       id="circle4958-5-5"
       cx="42.682915"
       cy="108.71259"
       r="4"
       inkscape:label="FIFTEEN" />
    <circle
       style="display:inline;vector-effect:none;fill:#0000ff;fill-opacity:1;fill-rule:evenodd;stroke:none;stroke-width:1;stroke-linecap:butt;stroke-linejoin:miter;stroke-miterlimit:4;stroke-dasharray:none;stroke-dashoffset:0;stroke-opacity:1;paint-order:normal"
       id="circle4958-5-3"
       cx="33.535278"
       cy="108.71259"
       r="4"
       inkscape:label="FOURTEEN" />
    <circle
       style="display:inline;vector-effect:none;fill:#0000ff;fill-opacity:1;fill-rule:evenodd;stroke:none;stroke-width:1;stroke-linecap:butt;stroke-linejoin:miter;stroke-miterlimit:4;stroke-dasharray:none;stroke-dashoffset:0;stroke-opacity:1;paint-order:normal"
       id="circle4958-5"
       cx="24.38764"
       cy="108.71259"
       r="4"
       inkscape:label="THIRTEEN" />
    <circle
       style="display:inline;opacity:1;vector-effect:none;fill:#0000ff;fill-opacity:1;fill-rule:evenodd;stroke:none;stroke-width:1;stroke-linecap:butt;stroke-linejoin:miter;stroke-miterlimit:4;stroke-dasharray:none;stroke-dashoffset:0;stroke-opacity:1;paint-order:normal"
       id="circle4958"
       cx="15.24"
       cy="108.71259"
       r="4"
       inkscape:label="TWELVE" />
    <circle
       style="display:inline;vector-effect:none;fill:#0000ff;fill-opacity:1;fill-rule:evenodd;stroke:none;stroke-width:1;stroke-linecap:butt;stroke-linejoin:miter;stroke-miterlimit:4;stroke-dasharray:none;stroke-dashoffset:0;stroke-opacity:1;paint-order:normal"
       id="circle4958-5-5-1"
       cx="42.682915"
       cy="99.736435"
       r="4"
       inkscape:label="ELEVEN" />
    <circle
       style="display:inline;vector-effect:none;fill:#0000ff;fill-opacity:1;fill-rule:evenodd;stroke:none;stroke-width:1;stroke-linecap:butt;stroke-linejoin:miter;stroke-miterlimit:4;stroke-dasharray:none;stroke-dashoffset:0;stroke-opacity:1;paint-order:normal"
       id="circle4958-5-3-9"
       cx="33.535278"
       cy="99.736435"
       r="4"
       inkscape:label="TEN" />
    <circle
       style="display:inline;vector-effect:none;fill:#0000ff;fill-opacity:1;fill-rule:evenodd;stroke:none;stroke-width:1;stroke-linecap:butt;stroke-linejoin:miter;stroke-miterlimit:4;stroke-dasharray:none;stroke-dashoffset:0;stroke-opacity:1;paint-order:normal"
       id="circle4958-5-2"
       cx="24.38764"
       cy="99.736435"
       r="4"
       inkscape:label="NINE" />
    <circle
       style="display:inline;vector-effect:none;fill:#0000ff;fill-opacity:1;fill-rule:evenodd;stroke:none;stroke-width:1;stroke-linecap:butt;stroke-linejoin:miter;stroke-miterlimit:4;stroke-dasharray:none;stroke-dashoffset:0;stroke-opacity:1;paint-order:normal"
       id="circle4958-6"
       cx="15.24"
       cy="99.736435"
       r="4"
       inkscape:label="EIGHT" />
    <circle
       style="display:inline;vector-effect:none;fill:#0000ff;fill-opacity:1;fill-rule:evenodd;stroke:none;stroke-width:1;stroke-linecap:butt;stroke-linejoin:miter;stroke-miterlimit:4;stroke-dasharray:none;stroke-dashoffset:0;stroke-opacity:1;paint-order:normal"
       id="circle4958-5-5-1-9"
       cx="42.682915"
       cy="90.760277"
       r="4"
       inkscape:label="SEVEN" />
    <circle
       style="display:inline;vector-effect:none;fill:#0000ff;fill-opacity:1;fill-rule:evenodd;stroke:none;stroke-width:1;stroke-linecap:butt;stroke-linejoin:miter;stroke-miterlimit:4;stroke-dasharray:none;stroke-dashoffset:0;stroke-opacity:1;paint-order:normal"
       id="circle4958-5-3-9-0"
       cx="33.535278"
       cy="90.760277"
       r="4"
       inkscape:label="SIX" />
    <circle
       style="display:inline;vector-effect:none;fill:#0000ff;fill-opacity:1;fill-rule:evenodd;stroke:none;stroke-width:1;stroke-linecap:butt;stroke-linejoin:miter;stroke-miterlimit:4;stroke-dasharray:none;stroke-dashoffset:0;stroke-opacity:1;paint-order:normal"
       id="circle4958-5-2-7"
       cx="24.38764"
       cy="90.760277"
       r="4"
       inkscape:label="FIVE" />
    <circle
       style="display:inline;vector-effect:none;fill:#0000ff;fill-opacity:1;fill-rule:evenodd;stroke:none;stroke-width:1;stroke-linecap:butt;stroke-linejoin:miter;stroke-miterlimit:4;stroke-dasharray:none;stroke-dashoffset:0;stroke-opacity:1;paint-order:normal"
       id="circle4958-6-2"
       cx="15.24"
       cy="90.760277"
       r="4"
       inkscape:label="FOUR" />
    <circle
       style="display:inline;vector-effect:none;fill:#0000ff;fill-opacity:1;fill-rule:evenodd;stroke:none;stroke-width:1;stroke-linecap:butt;stroke-linejoin:miter;stroke-miterlimit:4;stroke-dasharray:none;stroke-dashoffset:0;stroke-opacity:1;paint-order:normal"
       id="circle4958-5-5-1-9-6"
       cx="42.682915"
       cy="81.784119"
       r="4"
       inkscape:label="THREE" />
    <circle
       style="display:inline;vector-effect:none;fill:#0000ff;fill-opacity:1;fill-rule:evenodd;stroke:none;stroke-width:1;stroke-linecap:butt;stroke-linejoin:miter;stroke-miterlimit:4;stroke-dasharray:none;stroke-dashoffset:0;stroke-opacity:1;paint-order:normal"
       id="circle4958-5-3-9-0-0"
       cx="33.535278"
       cy="81.784119"
       r="4"
       inkscape:label="TWO" />
    <circle
       style="display:inline;vector-effect:none;fill:#0000ff;fill-opacity:1;fill-rule:evenodd;stroke:none;stroke-width:1;stroke-linecap:butt;stroke-linejoin:miter;stroke-miterlimit:4;stroke-dasharray:none;stroke-dashoffset:0;stroke-opacity:1;paint-order:normal"
       id="circle4958-5-2-7-6"
       cx="24.38764"
       cy="81.784119"
       r="4"
       inkscape:label="ONE" />
    <circle
       style="display:inline;vector-effect:none;fill:#0000ff;fill-opacity:1;fill-rule:evenodd;stroke:none;stroke-width:1;stroke-linecap:butt;stroke-linejoin:miter;stroke-miterlimit:4;stroke-dasharray:none;stroke-dashoffset:0;stroke-opacity:1;paint-order:normal"
       id="circle4958-6-2-3"
       cx="15.24"
       cy="81.784119"
       r="4"
       inkscape:label="ZERO" />
  </g>
</svg>
